<svg id="Слой_1" xmlns="http://www.w3.org/2000/svg" viewBox="0 0 737 560"><style>.st1{fill:#b9d5ee}.st4{fill:#b280bc}.st5{fill:#b284bf}</style><path d="M179.388504 274.7332153c-33.4047546-44.5397491-73.7449112-23.8911438-68.4971695 47.8282166 5.2477417 71.7195129 59.7518234 201.5768127 190.0704346 232.9271545 161.9652634 38.96344 415.4479599-183.6717834 416.3224716-313.1165924.8746948-129.444931-147.6836548-201.7869568-237.0239563-224.7790527-118.9492798-30.6119452-241.6242218-19.794467-268.5105438 55.9759903-28.8626556 81.3403397 60.5801544 173.7911377 85.7136993 175.3623657 34.9851685 2.1868896 28.7305908-85.3150177 89.6492004-80.4649963 34.1183472 2.7164001 44.2823486 86.6438599 75.4936523 87.300827 34.3349304.7226257 69.6615906-130.5422974 126.1078186-93.8608093 58.5791626 38.0673523-57.2874146 230.4641113-114.1381836 233.0880737-56.850769 2.6237793-57.5567017-71.5583191-85.491272-71.799408-31.2774353-.269989-33.8960571 90.6038818-88.9975281 90.6038818-34.9851988-.0000076-86.5881041-93.5851211-120.6986235-139.0656509z" fill="#b9d2ed"/><path class="st1" d="M297.4634399 248.9311523c-25.1335449-1.5709381-114.576355-94.0218811-85.7136993-175.3622131 5.0162506-14.1370049 13.3701477-26.0102806 24.4089355-35.7776794-57.6474762 17.6367111-96.7006073 46.5923691-99.0940399 75.6554108-6.2282257 75.6298904 135.5267334 185.4220581 177.6766968 127.0509567-4.6461182 5.5423965-10.0909119 8.8829727-17.2778931 8.433525z"/><path d="M606.5551758 104.1497726C489.3035278 10.604826 335.2559509 7.473278 236.1586761 37.7912521c-11.0387878 9.7673988-19.3926849 21.6406746-24.4089355 35.7776794-28.8626556 81.3403397 60.5801544 173.7912903 85.7136993 175.3622131 34.9850464 2.1871643 28.7305908-85.3148804 89.6492004-80.4647217 34.1183472 2.7162628 44.2823486 86.6435852 75.4936523 87.3005524 34.3349304.7227631 69.6615906-130.5421448 126.1078186-93.8608093 58.5790405 38.0674896-57.2874146 230.4642487-114.1381836 233.0880585-23.980957 1.106842-37.9718323-11.4528198-48.2302551-26.3642273C489.713501 497.3764343 776.6873169 239.883606 606.5551758 104.1497726z" fill="#b7b8dd"/><path d="M118.8680267 366.7333374c-20.1196671 22.2573242-35.7333374 48.3348083-28.2875366 83.2589111 12.0867691 56.6927795 65.5238953 77.2061157 133.5414734 71.078186-57.7190094-40.1319885-90.9696655-102.4000854-105.2539368-154.3370971z" fill="#b5a2d0"/><path class="st4" d="M514.9013062 372.4743042c-14.5793762 13.4874268-28.6890259 21.9830322-40.3253784 22.519928-56.850769 2.6239319-57.5567017-71.5581665-85.4911499-71.7992554-31.2775574-.269989-33.8961792 90.6038818-88.9976501 90.6038818-34.985199 0-86.5881042-93.5851135-120.6986237-139.0656433-1.9315643-2.5754089-3.8868256-4.9229431-5.8546295-7.0650635 22.0926361 37.1384583-22.1689301 63.1154175-54.6658478 99.0651855 14.2842712 51.9370117 47.5349274 114.2051086 105.2539368 154.3370972 92.3678435-8.3217162 211.6197661-65.7915344 290.7793426-148.5961303z"/><path class="st5" d="M715.9969482 258.2527161c-11.6140137 77.4434814-100.3511963 180.4074707-203.0968018 243.8246765 83.9625854-.1697388 160.7529907-31.1018372 196.8499146-86.48349 28.052002-43.0385742 29.7849732-104.8568115 6.2468872-157.3411865z"/><path d="M715.9969482 258.2527161c-22.3349609-49.8022919-67.4372559-91.1799774-134.4240723-100.1396637 2.3436279.9788208 4.7216187 2.2207794 7.1412354 3.7931213 58.5790405 38.0674896-57.2874146 230.4642487-114.1381836 233.0880585-56.850769 2.6239319-57.5567017-71.5581665-85.4911499-71.7992554-31.2775574-.269989-33.8961792 90.6038818-88.9976501 90.6038818-17.9955444 0-40.3878784-24.7621765-62.5347443-55.0010986 63.4922028 99.3676758 174.5815582 143.4833679 275.3477783 143.2796326 102.7455903-63.4172058 191.4827729-166.3811951 203.0967865-243.8246765z" fill="#b5a1d0"/><circle class="st1" cx="86.6071167" cy="224.3731079" r="28.8202057"/><circle class="st4" cx="47.6165543" cy="150.1661987" r="41.0739098"/><circle class="st5" cx="520.7695923" cy="525.9393921" r="12.8993664"/></svg>